<?xml version="1.0" encoding="iso-8859-1"?>
<!-- Generator: Adobe Illustrator 19.0.0, SVG Export Plug-In . SVG Version: 6.00 Build 0)  -->
<svg version="1.1" id="Layer_1" xmlns="http://www.w3.org/2000/svg" xmlns:xlink="http://www.w3.org/1999/xlink" x="0px" y="0px"
	 viewBox="0 0 340.679 340.679" style="enable-background:new 0 0 340.679 340.679;" xml:space="preserve">
<g id="XMLID_1059_">
	<path id="XMLID_1060_" style="fill:#9FCBA5;" d="M234.86,190.984c0,39.256-28.287,71.079-63.181,71.079
		s-63.181-31.823-63.181-71.079c0-29.487,35.649-78.077,53.391-100.432c5.002-6.303,14.578-6.303,19.579,0
		C199.21,112.907,234.86,161.497,234.86,190.984z"/>
	<g id="XMLID_1061_">
		<path id="XMLID_9_" style="fill:#2B7B57;" d="M257.553,83.35c-48.456-48.456-127.276-48.04-175.211,1.247
			c-46.201,47.505-46.201,123.981,0,171.486c43.173,44.392,111.402,49.138,159.933,14.24c9.458-6.801,22.422-5.849,30.66,2.389l0,0
			c10.265,10.265,9.002,27.338-2.765,35.84c-66.582,48.108-160.103,42.187-220.054-17.763c-66.461-66.459-66.461-174.44,0-240.899
			c66.522-66.52,174.374-66.52,240.895,0.001"/>
		<path id="XMLID_6_" style="fill:#49B86E;" d="M330.652,49.412l9.405,53.272c2.706,15.325-10.645,28.675-25.97,25.97l-53.272-9.405
			c-17.857-3.153-24.774-25.1-11.952-37.922L292.73,37.46C305.551,24.638,327.499,31.556,330.652,49.412z"/>
	</g>
</g>
<g>
</g>
<g>
</g>
<g>
</g>
<g>
</g>
<g>
</g>
<g>
</g>
<g>
</g>
<g>
</g>
<g>
</g>
<g>
</g>
<g>
</g>
<g>
</g>
<g>
</g>
<g>
</g>
<g>
</g>
</svg>
